<svg width="16" height="16" viewBox="0 0 16 16" xmlns="http://www.w3.org/2000/svg">
  <path fill="#C5C5C5" d="M13.451 5.609l-.579-.939-1.068.812-.076.094c-.335.415-.927 1.341-1.124 2.876l-.021.165.033.163.071.345c0 1.654-1.346 3-3 3-.795 0-1.545-.311-2.107-.868-.563-.567-.873-1.317-.873-2.111 0-1.431 1.007-2.632 2.351-2.929v2.926s2.528-2.087 2.984-2.461l.089-.073-.062-.103-2.947-4.776v2.828c-2.82.27-5.024 2.643-5.024 5.515 0 1.295.513 2.577 1.408 3.527.896.95 2.148 1.465 3.425 1.465 1.279 0 2.538-.518 3.44-1.48.9-.96 1.409-2.242 1.409-3.524 0-.568-.092-1.195-.293-1.836l-.076-.302c.06-.364.312-1.591.677-2.097l.11-.153.105.001z"/>
</svg>